<?xml version="1.0" encoding="UTF-8"?>
<!DOCTYPE svg PUBLIC "-//W3C//DTD SVG 1.1//EN" "http://www.w3.org/Graphics/SVG/1.1/DTD/svg11.dtd">
<!-- Creator: CorelDRAW X6 -->
<svg xmlns="http://www.w3.org/2000/svg" xml:space="preserve" width="190.694mm" height="58.1272mm" version="1.1" style="shape-rendering:geometricPrecision; text-rendering:geometricPrecision; image-rendering:optimizeQuality; fill-rule:evenodd; clip-rule:evenodd"
viewBox="0 0 609 186"
 xmlns:xlink="http://www.w3.org/1999/xlink">
 <defs>
  <style type="text/css">
   <![CDATA[
    .fil0 {fill:#BFBF22}
    .fil5 {fill:#FF8400}
    .fil2 {fill:white}
    .fil1 {fill:#0D97BA;fill-rule:nonzero}
    .fil4 {fill:#333333;fill-rule:nonzero}
    .fil3 {fill:#CCCCCC;fill-rule:nonzero}
   ]]>
  </style>
 </defs>
 <g id="Layer_x0020_1">
  <metadata id="CorelCorpID_0Corel-Layer"/>
  <rect class="fil0" width="609" height="186"/>
  <path class="fil1" d="M96 81l0 -35 13 -13 2 1 0 47 -15 0zm39 57l2 13 -17 10 -24 0 0 -49 -30 0 0 -11 45 0 0 48 24 0 0 -11zm-69 8l2 5 -17 10 -24 0 0 -115 13 -13 2 2 0 114 24 0 0 -3zm399 -4l0 0 0 7 -32 0c-9,0 -17,-2 -23,-4 -7,-4 -12,-9 -14,-14 -3,-5 -4,-10 -5,-16 0,-2 -1,-3 -1,-5 0,-1 0,-2 0,-3 0,-2 0,-3 0,-4 0,-1 1,-3 1,-5 1,-6 3,-11 5,-16 0,-1 1,-2 2,-3 -1,1 -2,1 -3,1 -7,4 -11,9 -14,14 -2,4 -4,10 -5,16 0,2 -1,4 -1,4 0,1 0,3 0,4 0,1 0,3 0,4 1,1 1,3 1,5 1,6 2,11 5,16 2,5 7,10 14,13 6,3 14,5 23,5l29 0 5 0 18 0 11 0 16 -10 3 -8 -4 6 -29 0 40 -58 -35 -53 -6 -5 -11 14 37 56 -27 39zm-46 -15l31 0 17 -9 -4 -2 -48 0 0 2 0 2c1,3 2,6 4,7zm-4 -33l6 0 29 0 17 -10 -4 -2 -27 0 -7 0c-6,1 -10,3 -12,6 0,1 -1,3 -1,5 -1,0 -1,0 -1,1zm95 33l21 34 29 0 15 -10 -2 -2 -27 0 -25 -40 -11 18zm33 -92l-2 -1 -12 12 -12 19 4 5 22 -35zm-400 41l13 -13 5 2 -3 0 0 17 37 0c5,0 10,1 14,2 4,2 6,6 6,10l0 4 -18 0c-1,-1 -2,-2 -3,-2 -4,-2 -9,-2 -14,-2l-37 0 0 -18zm95 70l2 5 -17 10 -60 0c-2,0 -3,-1 -5,-1 -2,0 -4,-1 -6,-1 -4,-2 -8,-5 -11,-9 -3,-4 -4,-8 -4,-14 0,-3 0,-6 1,-9 1,-3 2,-5 3,-7 2,-3 16,-16 21,-17 -3,1 -5,3 -6,6 -1,1 -2,4 -3,6 -1,3 -1,6 -1,10 0,5 1,10 4,14 3,4 7,7 11,8 2,1 4,1 6,1 2,1 3,1 5,1l60 0 0 -3zm-38 -14l0 -6 -24 0c-1,-1 -1,-2 -1,-3 0,-2 2,-5 4,-7 3,-1 6,-1 10,-1l26 0 0 17 -15 0zm42 -56l13 -14 4 3 -2 0 0 84 23 0 0 -5 2 7 -17 10 -23 0 0 -85zm77 24l0 0 -15 11 -22 0 0 -10c0,-3 0,-6 -2,-8 0,0 0,0 0,0l0 -12 7 0 4 0c2,0 3,0 4,1 2,2 2,4 2,7l0 11 22 0zm6 -7l-6 0 0 -7c0,-4 -1,-8 -2,-11 -1,-2 -1,-3 -2,-4l8 -8 2 2 15 0 0 -9c0,-3 1,-6 1,-9 1,-5 3,-8 7,-10 2,-1 4,-2 7,-2 -12,1 -27,9 -29,23 0,2 -1,4 -1,7l-1 0 0 16 16 0 0 68 23 0 0 -5 2 7 -17 10 -23 0 0 -68zm56 -43l6 3 -18 9 -6 0 0 -4c0,-2 1,-4 3,-6 2,-1 4,-2 8,-2l7 0zm1 31l4 2 -17 10 -6 0 0 -12 19 0z"/>
  <path class="fil2" d="M467 145l38 -54 -40 -59 33 0 23 34 22 -34 33 0 -39 58 41 61 -33 0 -24 -38 -24 38 -64 0c-8,0 -17,-1 -24,-5l0 0 0 0c-6,-3 -12,-8 -15,-14 -3,-5 -4,-11 -5,-17 0,-1 -1,-3 -1,-5 0,-1 0,-2 0,-3 0,-2 0,-3 0,-4 0,-2 1,-4 1,-5 1,-6 2,-12 5,-17 3,-6 9,-11 15,-14l0 0 0 0c7,-3 16,-5 24,-5l34 0 0 22 -38 0c-4,1 -8,2 -10,5 0,1 -1,3 -1,4 -1,1 -1,2 -1,3l50 0 0 22 -50 0 0 2c1,3 3,7 6,8 4,1 9,1 13,1l31 0 0 16zm-399 -67l40 0 0 -46 29 0 0 119 -29 0 0 -48 -40 0 0 48 -28 0 0 -119 28 0 0 46zm145 18l0 -2c0,-4 -2,-6 -5,-8 -4,-1 -9,-2 -13,-2l-39 0 0 -22 47 0c3,0 6,0 8,1 8,0 14,3 20,8l0 0 0 1c6,6 9,15 9,24l0 55 -62 0c-2,0 -4,0 -5,0 -2,-1 -4,-1 -6,-2 -5,-1 -10,-4 -13,-9 -3,-5 -4,-10 -4,-15 0,-4 0,-7 1,-10 1,-3 2,-5 3,-8 3,-4 7,-7 11,-9 6,-2 14,-2 21,-2l27 0zm80 -13c0,0 -1,0 -2,0l-9 0 0 68 -27 0 0 -89 40 0c5,0 10,1 15,3l0 0 0 0c4,2 7,5 9,9l0 0 0 0c1,4 2,8 2,12l0 16 -26 0 0 -13c0,-2 0,-4 -2,-6zm74 -29c-1,1 -2,2 -2,4l0 4 22 0 0 21 -22 0 0 68 -27 0 0 -68 -16 0 0 -21 16 0 0 -6c0,-3 0,-6 1,-10l0 0 0 0c1,-5 4,-9 8,-11l0 0 0 0c5,-2 11,-3 16,-3l24 0 0 21 -13 0c-2,0 -5,0 -7,1zm-154 76l0 -13 -24 0c-3,0 -6,0 -9,1 -1,1 -2,3 -2,5 0,1 0,3 0,4 3,2 6,3 9,3l26 0z"/>
  <path class="fil3" d="M66 34l0 47 45 0 0 -47 24 0 0 115 -24 0 0 -48 -45 0 0 48 -24 0 0 -115 24 0zm92 31l45 0c4,0 7,0 8,0 7,0 13,3 18,8 6,6 9,14 9,23l0 53 -60 0c-2,0 -3,0 -5,-1 -2,0 -4,0 -6,-1 -4,-1 -8,-4 -11,-8 -3,-4 -4,-9 -4,-14 0,-4 0,-7 1,-10 1,-2 2,-5 3,-6 2,-4 6,-7 10,-9 5,-2 11,-2 20,-2l29 0 0 -4c0,-4 -2,-8 -6,-10 -4,-1 -9,-2 -14,-2l-37 0 0 -17zm29 67l28 0 0 -17 -26 0c-4,0 -7,0 -10,1 -2,2 -4,5 -4,7 0,3 1,5 2,6 2,2 6,3 10,3zm70 -67l38 0c5,0 10,0 14,2 4,1 7,4 8,8 1,3 2,7 2,11l0 14 -22 0 0 -11c0,-3 0,-5 -2,-7 -1,-1 -2,-1 -4,-1l-4 0 -7 0 0 68 -23 0 0 -84zm83 16l-16 0 0 -16 16 0 0 -9c0,-3 1,-6 1,-9 1,-5 3,-8 7,-10 4,-2 9,-3 15,-3l21 0 0 16 -10 0c-4,0 -6,1 -8,2 -2,2 -3,4 -3,6l0 7 21 0 0 16 -21 0 0 68 -23 0 0 -68zm93 68c-9,0 -17,-2 -23,-4 -7,-4 -12,-9 -14,-14 -3,-5 -4,-10 -5,-16 0,-2 -1,-3 -1,-5 0,-1 0,-2 0,-3 0,-2 0,-3 0,-4 0,-1 1,-3 1,-5 1,-6 3,-11 5,-16 2,-5 7,-9 14,-13 6,-3 14,-4 23,-4l32 0 0 17 -29 0 -7 0c-6,1 -10,3 -12,6 0,1 -1,3 -1,5 -1,1 -1,3 -1,5l50 0 0 18 -50 0 0 2 0 2c2,6 5,9 8,10 3,1 7,1 13,1l29 0 0 18 -32 0zm74 -58l-38 -57 28 0 24 36 23 -36 28 0 -37 56 39 59 -28 0 -25 -40 -25 40 -29 0 40 -58z"/>
  <path class="fil4" d="M552 36c2,0 4,1 5,2l0 0c1,1 2,3 2,5 0,1 -1,3 -2,4l0 0c-1,1 -3,2 -5,2 -2,0 -3,-1 -4,-2l0 0c-2,-1 -2,-3 -2,-4 0,-2 0,-4 2,-5l0 0c1,-1 2,-2 4,-2zm4 3c-1,-1 -2,-2 -4,-2 -1,0 -3,1 -4,2 -1,1 -1,2 -1,4 0,1 0,3 1,4 1,1 3,1 4,1 2,0 3,0 4,-1 1,-1 2,-3 2,-4 0,-2 -1,-3 -2,-4zm-6 7l0 -7 2 0c1,0 2,0 2,0 0,1 1,1 1,1 0,0 0,1 0,1 0,1 0,1 0,1 -1,1 -1,1 -2,1 1,0 1,0 1,0 0,1 1,1 1,2l1 1 -2 0 -1 -2c0,0 0,0 -1,-1 0,0 0,0 0,0 0,0 0,0 -1,0l0 0 0 3 -1 0zm1 -4l1 0c1,0 1,0 1,0 0,0 1,0 1,0 0,0 0,-1 0,-1 0,0 0,0 0,0 -1,-1 -1,-1 -1,-1 0,0 0,0 -1,0l-1 0 0 2z"/>
  <rect class="fil5" y="167" width="608.723" height="18.2416"/>
 </g>
</svg>
