<?xml version="1.0" encoding="UTF-8"?>
<!DOCTYPE svg PUBLIC "-//W3C//DTD SVG 1.1//EN" "http://www.w3.org/Graphics/SVG/1.1/DTD/svg11.dtd">
<!-- Creator: CorelDRAW X6 -->
<svg xmlns="http://www.w3.org/2000/svg" xml:space="preserve" width="14.3644mm" height="13.333mm" version="1.1" style="shape-rendering:geometricPrecision; text-rendering:geometricPrecision; image-rendering:optimizeQuality; fill-rule:evenodd; clip-rule:evenodd"
viewBox="0 0 49 46"
 xmlns:xlink="http://www.w3.org/1999/xlink">
 <defs>
  <style type="text/css">
   <![CDATA[
    .str1 {stroke:#FF6600;stroke-width:0.260272}
    .str0 {stroke:#4D4D4D;stroke-width:1.70782}
    .fil0 {fill:#C9E0F7}
    .fil1 {fill:#FF6600;fill-rule:nonzero}
   ]]>
  </style>
 </defs>
 <g id="Layer_x0020_1">
  <metadata id="CorelCorpID_0Corel-Layer"/>
  <path class="fil0 str0" d="M6 1l37 0c3,0 5,2 5,5l0 34c0,2 -2,5 -5,5l-37 0c-3,0 -5,-3 -5,-5l0 -34c0,-3 2,-5 5,-5z"/>
 </g>
 <g id="Layer_x0020_1_0">
  <metadata id="CorelCorpID_1Corel-Layer"/>
  <path class="fil1 str1" d="M30 39l5 -3 0 -6 -5 -3 -5 3 0 6 5 3zm5 -3l-5 3 0 0 0 0 -5 -3 0 0 0 0 0 -6 0 0 0 0 5 -3 0 0 0 0 5 3 1 0 0 0 0 6 0 0 -1 0zm-16 3l5 -3 0 -6 -5 -3 -5 3 0 6 5 3zm5 -3l-5 3 0 0 0 0 -5 -3 -1 0 0 0 0 -6 0 0 1 0 5 -3 0 0 0 0 5 3 0 0 0 0 0 6 0 0 0 0zm12 -7l5 -3 0 -6 -5 -3 -5 3 0 6 5 3zm5 -3l-5 3 0 0 0 0 -5 -3 0 0 0 0 0 -6 0 0 0 -1 5 -3 0 0 0 0 5 3 0 1 0 0 0 6 0 0 0 0zm-16 3l4 -3 0 -6 -4 -3 -5 3 0 6 5 3zm5 -3l-5 3 0 0 -1 0 -5 -3 0 0 0 0 0 -6 0 0 0 -1 5 -3 1 0 0 0 5 3 0 1 0 0 0 6 0 0 0 0zm-17 3l5 -3 0 -6 -5 -3 -5 3 0 6 5 3zm5 -3l-5 3 0 0 0 0 -5 -3 0 0 0 0 0 -6 0 0 0 -1 5 -3 0 0 0 0 5 3 0 1 0 0 0 6 0 0 0 0zm12 -8l5 -3 0 -5 -5 -3 -5 3 0 5 5 3zm5 -2l-5 3 0 0 0 0 -5 -3 0 0 0 0 0 -7 0 0 0 0 5 -3 0 0 0 0 5 3 1 0 0 0 0 7 0 0 -1 0zm-16 2l5 -3 0 -5 -5 -3 -5 3 0 5 5 3zm5 -2l-5 3 0 0 0 0 -5 -3 -1 0 0 0 0 -7 0 0 1 0 5 -3 0 0 0 0 5 3 0 0 0 0 0 7 0 0 0 0z"/>
 </g>
</svg>
