<?xml version="1.0" encoding="UTF-8"?>
<!DOCTYPE svg PUBLIC "-//W3C//DTD SVG 1.1//EN" "http://www.w3.org/Graphics/SVG/1.1/DTD/svg11.dtd">
<!-- Creator: CorelDRAW X6 -->
<svg xmlns="http://www.w3.org/2000/svg" xml:space="preserve" width="146.302mm" height="123.293mm" version="1.1" style="shape-rendering:geometricPrecision; text-rendering:geometricPrecision; image-rendering:optimizeQuality; fill-rule:evenodd; clip-rule:evenodd"
viewBox="0 0 291 246"
 xmlns:xlink="http://www.w3.org/1999/xlink">
 <defs>
  <style type="text/css">
   <![CDATA[
    .str0 {stroke:black;stroke-width:0.151783}
    .fil1 {fill:none}
    .fil2 {fill:#706355}
    .fil0 {fill:#F2E7D0}
    .fil3 {fill:#FAE2B1}
    .fil5 {fill:white}
    .fil4 {fill:#0FA5A8;fill-rule:nonzero}
    .fil7 {fill:#17B0B3;fill-rule:nonzero}
    .fil6 {fill:#BFFFFF;fill-rule:nonzero}
   ]]>
  </style>
 </defs>
 <g id="Layer_x0020_1">
  <metadata id="CorelCorpID_0Corel-Layer"/>
  <path class="fil0 str0" d="M136 163l0 3 -6 18 5 6 12 2c0,0 7,-3 8,-3 0,0 6,-6 6,-6l4 -1 1 -3 7 -2 4 1 2 -1 2 -3 -1 -2 -12 -12 -8 -4 -7 -6 -5 -1 0 2 -2 3 -3 1 -4 0 -1 2c0,0 -1,2 -1,2 0,0 -1,4 -1,4z"/>
  <path class="fil0 str0" d="M118 39l-3 1 -5 -2 -4 0 -6 4 -4 2 0 47c0,0 -1,16 -1,17 0,1 8,4 11,5 2,0 15,9 15,9l4 3 8 -3 5 -7 9 -17 2 -15 -1 -2 -1 -3 -4 -4 -8 -14 3 -8c0,0 6,-9 7,-16 0,-5 -3,-10 -5,-10 -3,0 -11,2 -11,2 0,0 -4,3 -4,4 -1,1 -7,7 -7,7z"/>
  <path class="fil0" d="M40 105c4,-3 10,-6 16,-4 0,1 -5,2 -6,2 -5,3 -12,9 -13,13 8,-6 23,-8 32,-1 3,-4 3,-15 2,-21 0,-2 -1,-4 -1,-7 3,2 5,9 6,11 2,-11 2,-21 -3,-32 0,-2 -1,-3 -2,-4 0,-2 -2,-3 -2,-4 1,0 4,4 5,5 8,11 8,28 5,42 -1,3 -1,5 -2,8 -2,7 -2,4 -1,7 3,-2 7,-10 9,-14 4,-12 7,-27 3,-40 -4,-14 -15,-20 -26,-9 -6,6 -10,14 -12,23 -1,6 0,8 -4,13 -3,4 -4,7 -6,12z"/>
  <path class="fil0" d="M103 146l1 -2c6,7 13,3 17,1 1,1 1,2 2,2 1,1 2,2 3,2 2,2 0,5 4,6 0,-1 1,-2 2,-3 0,-1 -1,-3 -1,-4 -1,-3 -3,-3 -5,-5 0,-1 -1,-2 -1,-3 1,0 1,0 2,1 4,5 4,1 8,12 1,4 8,7 1,-10 0,-1 -4,-5 -5,-6 -1,-1 -2,-2 -2,-3 1,1 4,3 5,4 4,3 3,2 5,5 0,1 1,2 1,3 2,2 2,5 4,6 1,1 2,1 3,0 1,-1 -1,-5 -1,-7 -1,-1 -4,-8 -5,-9 -2,-1 -8,-5 -8,-7 1,0 4,2 5,3 2,1 4,2 5,4 1,2 2,3 3,5 1,2 2,4 4,4 1,-3 -1,-8 -2,-10 -4,-7 -3,-4 -12,-9 -5,-3 -5,-2 -13,1 0,0 -1,0 -2,1 -3,1 -7,2 -10,3 -5,2 -7,2 -12,1 -9,0 -16,-1 -24,-3 -7,-2 -14,-6 -20,0 -4,4 -7,9 -5,15 1,3 1,3 3,3 7,2 18,2 25,1 6,0 21,-2 25,-2z"/>
  <path class="fil0" d="M187 145c1,-1 1,-1 1,-1 1,3 0,5 3,7 1,0 1,1 3,1 1,0 2,2 4,1 1,0 1,-2 1,-4 -1,-1 -2,-1 -3,-2 1,-4 2,-6 6,-8 1,3 0,2 3,4 3,1 2,3 4,7 0,1 1,1 2,2 5,2 2,-4 1,-9 0,-2 -1,-3 -2,-6 -3,-6 -5,-3 -13,-3 -1,0 -2,0 -3,-1 -3,-2 -12,-8 -14,-8 -5,0 -9,4 -11,7 -1,2 -2,4 -1,7 0,2 3,2 5,3 3,0 5,1 7,1 3,1 5,2 7,2z"/>
  <path class="fil0" d="M157 53c6,0 9,5 10,5 3,2 14,-14 4,-18 -3,-1 -6,-2 -7,-4 -1,-1 -1,-2 -2,-3 1,15 -10,9 -15,13 -2,1 -4,5 -5,8 -2,5 -1,8 0,12 6,0 5,0 11,2l1 -1c2,0 2,2 4,3 1,-2 4,-7 4,-9 -2,-1 -3,-2 -3,-4 -1,-1 -2,-3 -2,-4z"/>
  <path class="fil0" d="M36 134c1,-2 1,-4 5,-7 1,-1 4,-4 6,-5 0,2 -8,7 -8,18 1,8 6,14 13,14 -1,-1 -3,-1 -5,-4 -6,-9 0,-23 10,-27 5,-2 9,0 13,2 0,-9 -13,-13 -22,-10 -6,2 -8,4 -11,7 -1,2 -2,3 -3,6 -1,2 1,4 2,6z"/>
  <path class="fil0" d="M143 206c0,-6 -1,-7 2,-8l69 -12c3,-1 3,-1 5,-2 1,-1 3,-2 4,-3 -10,2 -24,5 -34,6l-43 8c-4,1 -4,1 -8,0 -6,-1 -47,-9 -51,-9 3,1 53,12 53,13 1,2 1,5 1,7l2 0z"/>
  <path class="fil0" d="M158 141c-1,-3 0,-6 1,-8 0,1 -1,5 1,9 2,2 4,4 8,5 -6,-4 -6,-12 -2,-17 3,-5 9,-9 17,-7 0,-2 -2,-3 -3,-4 -2,-2 -2,-3 -5,-3 -5,-1 -10,1 -13,3 -9,6 -9,18 -4,22z"/>
  <path class="fil1" d="M148 147c0,2 1,1 3,1 2,0 2,1 3,2 1,0 2,1 3,2 1,1 6,6 7,6 2,-1 6,-2 7,-2l1 -3c1,-1 14,-1 16,-1 -1,-3 -1,-2 -9,-3 -1,0 -3,0 -5,0 -5,1 -9,1 -13,-2 -2,-1 -1,-1 -4,-2 -2,0 -3,-1 -5,-1 -1,2 1,2 -4,3 0,0 0,0 0,0z"/>
  <path class="fil0" d="M235 162l5 2c0,6 -9,5 -14,4 -5,-1 -10,-3 -13,-6 -1,-1 -3,-4 -2,-7 3,-5 21,-2 23,1 -8,2 -4,0 -10,-1 -4,-1 -9,0 -6,5 1,2 4,4 7,5 2,0 8,1 9,-1 0,-1 0,-1 0,-1 1,-1 0,0 1,-1zm-27 0l0 -4c1,1 1,2 3,4 1,2 2,2 4,4l3 2c1,1 4,2 6,2 -1,0 -2,-1 -3,-1 4,0 11,3 17,0 4,-2 5,-4 4,-6 -1,0 -7,-1 -9,-1 -1,1 0,2 -2,2 -7,2 -18,-8 -9,-8 3,-1 5,1 7,2 0,1 -1,3 -1,4l2 -3 4 -1c0,2 0,1 0,2 0,0 0,1 0,1 0,-1 1,-4 1,-5 -1,-2 -13,-6 -21,-3 -3,0 -5,-1 -6,5 0,0 0,1 0,2l0 2z"/>
  <path class="fil0" d="M175 154c2,0 15,0 18,0 2,1 8,2 8,5 1,2 -1,2 -2,3 1,0 4,1 5,1 4,1 8,6 3,8 -3,1 -15,1 -19,2 -1,-3 -13,-17 -13,-19zm2 15c-1,-1 -2,-3 -4,-6 -1,-2 0,-3 0,-8 1,1 11,13 12,15 3,4 2,4 9,4 4,0 8,-1 12,-1l-1 5c0,0 1,-4 1,-5 4,-1 7,-3 4,-7 -2,-3 -6,-4 -7,-4 0,0 0,0 0,0 0,0 -1,0 -1,-1 5,-4 -5,-7 -10,-8 -3,0 -16,0 -19,1 0,1 0,3 -1,4 0,3 -1,3 1,5 1,1 1,2 2,3 1,1 2,3 2,3z"/>
  <path class="fil0" d="M151 159l7 6c0,1 0,0 0,1l-6 0c-1,0 -1,0 -1,0l0 -7zm-3 -5l1 13 12 0c0,-1 0,0 0,-1 -1,-1 -7,-6 -8,-8 0,-1 1,0 -1,-2 -1,-1 -2,-3 -3,-3 -1,0 -1,0 -1,1z"/>
  <path class="fil0" d="M219 151c1,-2 1,-2 0,-4 -1,-6 -2,-10 -7,-10 2,6 1,0 2,8 1,4 1,7 5,6z"/>
  <path class="fil0" d="M191 171c-1,-1 -2,-3 -3,-4l-6 -8c-3,-5 -1,-2 -2,-4l-3 0 9 13c1,1 2,2 3,4 0,0 0,0 1,-1l1 0z"/>
  <path class="fil0" d="M201 167c-2,1 -5,1 -7,1 -1,-1 -3,-3 -3,-4 3,0 10,-1 10,3zm-12 -3c0,0 3,4 4,5 3,0 13,0 9,-4 -3,-3 -9,-2 -13,-1z"/>
  <path class="fil0" d="M226 151c0,-2 -2,-5 -2,-6 -1,-2 -2,-4 -4,-4 1,5 1,11 6,10 0,0 0,0 0,0z"/>
  <path class="fil0" d="M188 161c-1,-2 -2,-3 -2,-4 3,0 9,-1 8,3 -1,1 -4,1 -6,1zm8 -1c0,-2 -2,-3 -4,-4 -3,0 -6,0 -9,0 0,1 3,5 5,5 2,1 7,0 8,-1z"/>
  <path class="fil0" d="M151 170c2,1 10,0 13,-1 -1,-1 -1,-1 -3,-1l-12 1 2 1z"/>
  <path class="fil0" d="M190 182c7,-1 18,0 19,-7 -1,3 -3,4 -5,4 -2,1 -16,2 -18,2 -1,-1 -3,-4 -4,-5 1,1 2,2 2,4 2,2 2,2 5,2 0,3 -1,2 0,3 1,-1 1,0 1,-2 0,0 0,-1 0,-1z"/>
  <g id="_1238207472">
   <path class="fil2" d="M143 206l-2 0c0,-2 0,-5 -1,-7 0,-1 -50,-12 -53,-13 4,0 45,8 51,9 4,1 4,1 8,0l43 -8c10,-1 24,-4 34,-6 -1,1 -3,2 -4,3 -2,1 -2,1 -5,2l-69 12c-3,1 -2,2 -2,8zm47 -24c0,0 0,1 0,1 0,2 0,1 -1,2 -1,-1 0,0 0,-3 -3,0 -3,0 -5,-2 0,-2 -1,-3 -2,-4 1,1 3,4 4,5 2,0 16,-1 18,-2 2,0 4,-1 5,-4 -1,7 -12,6 -19,7zm22 -10c2,1 5,2 8,3 5,2 7,1 11,2 -3,2 -11,0 -15,-2 -2,-1 -3,-2 -4,-3zm-63 -3l12 -1c2,0 2,0 3,1 -3,1 -11,2 -13,1l-2 -1zm0 -16c1,0 2,2 3,3 2,2 1,1 1,2 1,2 7,7 8,8 0,1 0,0 0,1l-12 0 -1 -13c0,-1 0,-1 1,-1zm59 7c0,-1 0,-2 0,-2 1,-6 3,-5 6,-5 8,-3 20,1 21,3 0,1 -1,4 -1,5 0,0 0,-1 0,-1 0,-1 0,0 0,-2l-4 1 -2 3c0,-1 1,-3 1,-4 -2,-1 -4,-3 -7,-2 -9,0 2,10 9,8 2,0 1,-1 2,-2 2,0 8,1 9,1 1,2 0,4 -4,6 -6,3 -13,0 -17,0 1,0 2,1 3,1 -2,0 -5,-1 -6,-2l-3 -2c-2,-2 -3,-2 -4,-4 -2,-2 -2,-3 -3,-4l0 4 0 -2zm-31 9c0,0 -1,-2 -2,-3 -1,-1 -1,-2 -2,-3 -2,-2 -1,-2 -1,-5 1,-1 1,-3 1,-4 3,-1 16,-1 19,-1 5,1 15,4 10,8 0,1 1,1 1,1 0,0 0,0 0,0 1,0 5,1 7,4 3,4 0,6 -4,7 0,1 -1,5 -1,5l1 -5c-4,0 -8,1 -12,1 -7,0 -6,0 -9,-4 -1,-2 -11,-14 -12,-15 0,5 -1,6 0,8 2,3 3,5 4,6zm-128 -12c2,0 4,0 6,-1 2,0 3,-1 5,-1 -2,2 -8,5 -11,2zm100 -7c2,-2 6,2 8,4l12 10c1,1 2,2 3,3 2,2 8,6 7,7 0,1 0,1 -1,2 0,1 0,4 -1,6 -1,2 -5,2 -7,2l0 4 -1 0 -1 -4c-2,0 -2,0 -3,-1 -1,-1 -2,-1 -2,-3l-10 1c-1,2 0,4 -3,5 -2,0 -5,1 -7,1 0,1 0,1 0,2 0,2 0,2 -1,2 0,0 -1,0 -1,-2 0,-1 0,-1 0,-2 -5,-1 -5,-3 -5,-8 0,-3 1,-11 0,-13 -2,0 -38,10 -44,12 -4,1 -10,3 -15,3 2,-1 9,-3 11,-4l12 -4c3,-12 3,-11 7,-22 4,1 5,2 9,0 6,-2 2,-1 8,1 1,2 2,4 3,4 3,2 4,0 5,0 1,0 1,1 2,1 1,1 1,1 2,2 0,1 0,4 0,5 1,2 1,0 2,5 1,-2 0,-8 0,-11 1,-1 1,0 2,-1 0,0 0,-1 1,-1l0 15c0,1 0,2 0,3 0,0 0,1 0,1 0,0 0,1 0,1 1,1 7,0 8,0 1,-1 0,-3 1,-4 1,-1 13,-2 14,-2 2,1 3,3 5,4 1,1 6,0 7,0 0,-1 -5,-6 -6,-7l-5 -4c-1,-1 -1,-1 -2,-2 -1,-1 -1,-1 -2,-1l-5 -5c0,-1 -1,-1 -2,-2 0,0 0,-1 -1,-1 -4,-3 -3,-1 -4,-2zm12 -3c4,3 8,3 13,2 2,0 4,0 5,0 8,1 8,0 9,3 -2,0 -15,0 -16,1l-1 3c-1,0 -5,1 -7,2 -1,0 -6,-5 -7,-6 -1,-1 -2,-2 -3,-2 -1,-1 -1,-2 -3,-2 -2,0 -3,1 -3,-1 0,0 0,0 0,0 5,-1 3,-1 4,-3 2,0 3,1 5,1 3,1 2,1 4,2zm65 4c0,0 0,0 0,0 -5,1 -5,-5 -6,-10 2,0 3,2 4,4 0,1 2,4 2,6zm-39 -6c-2,0 -4,-1 -7,-2 -2,0 -4,-1 -7,-1 -2,-1 -5,-1 -5,-3 -1,-3 0,-5 1,-7 2,-3 6,-7 11,-7 2,0 11,6 14,8 1,1 2,1 3,1 8,0 10,-3 13,3 1,3 2,4 2,6 1,5 4,11 -1,9 -1,-1 -2,-1 -2,-2 -2,-4 -1,-6 -4,-7 -3,-2 -2,-1 -3,-4 -4,2 -5,4 -6,8 1,1 2,1 3,2 0,2 0,4 -1,4 -2,1 -3,-1 -4,-1 -2,0 -2,-1 -3,-1 -3,-2 -2,-4 -3,-7 0,0 0,0 -1,1zm32 6c-4,1 -4,-2 -5,-6 -1,-8 0,-2 -2,-8 5,0 6,4 7,10 1,2 1,2 0,4zm-116 -5c-4,0 -19,2 -25,2 -7,1 -18,1 -25,-1 -2,0 -2,0 -3,-3 -2,-6 1,-11 5,-15 6,-6 13,-2 20,0 8,2 15,3 24,3 5,1 7,1 12,-1 3,-1 7,-2 10,-3 1,-1 2,-1 2,-1 8,-3 8,-4 13,-1 9,5 8,2 12,9 1,2 3,7 2,10 -2,0 -3,-2 -4,-4 -1,-2 -2,-3 -3,-5 -1,-2 -3,-3 -5,-4 -1,-1 -4,-3 -5,-3 0,2 6,6 8,7 1,1 4,8 5,9 0,2 2,6 1,7 -1,1 -2,1 -3,0 -2,-1 -2,-4 -4,-6 0,-1 -1,-2 -1,-3 -2,-3 -1,-2 -5,-5 -1,-1 -4,-3 -5,-4 0,1 1,2 2,3 1,1 5,5 5,6 7,17 0,14 -1,10 -4,-11 -4,-7 -8,-12 -1,-1 -1,-1 -2,-1 0,1 1,2 1,3 2,2 4,2 5,5 0,1 1,3 1,4 -1,1 -2,2 -2,3 -4,-1 -2,-4 -4,-6 -1,0 -2,-1 -3,-2 -1,0 -1,-1 -2,-2 -4,2 -11,6 -17,-1l-1 2zm55 -5c-5,-4 -5,-16 4,-22 3,-2 8,-4 13,-3 3,0 3,1 5,3 1,1 3,2 3,4 -8,-2 -14,2 -17,7 -4,5 -4,13 2,17 -4,-1 -6,-3 -8,-5 -2,-4 -1,-8 -1,-9 -1,2 -2,5 -1,8zm-122 -7c-1,-2 -3,-4 -2,-6 1,-3 2,-4 3,-6 3,-3 5,-5 11,-7 9,-3 22,1 22,10 -4,-2 -8,-4 -13,-2 -10,4 -16,18 -10,27 2,3 4,3 5,4 -7,0 -12,-6 -13,-14 0,-11 8,-16 8,-18 -2,1 -5,4 -6,5 -4,3 -4,5 -5,7zm116 -14c1,-2 3,-5 5,-6 2,-1 6,-3 8,-1 0,0 0,0 0,0l-7 3 -6 4zm-112 -15c2,-5 3,-8 6,-12 4,-5 3,-7 4,-13 2,-9 6,-17 12,-23 11,-11 22,-5 26,9 4,13 1,28 -3,40 -2,4 -6,12 -9,14 -1,-3 -1,0 1,-7 1,-3 1,-5 2,-8 3,-14 3,-31 -5,-42 -1,-1 -4,-5 -5,-5 0,1 2,2 2,4 1,1 2,2 2,4 5,11 5,21 3,32 -1,-2 -3,-9 -6,-11 0,3 1,5 1,7 1,6 1,17 -2,21 -9,-7 -24,-5 -32,1 1,-4 8,-10 13,-13 1,0 6,-1 6,-2 -6,-2 -12,1 -16,4zm-10 14c0,0 0,0 0,-1l-2 5 -1 5 0 5 1 4 0 0 1 2 0 0 4 3 -15 67 28 0c30,9 3,-25 53,-4 16,7 36,11 56,9 22,-1 45,-9 62,-20l9 -7c3,-2 10,-8 13,-11 1,-1 3,-3 4,-4 1,-2 4,-6 6,-8 -1,-1 -2,-1 -2,-1 -1,0 -3,-1 -4,-1 0,0 -4,0 -5,-1 -1,0 -1,-2 -1,-2l0 -2c-1,-3 -1,-2 -4,-4 -1,0 -3,-1 -5,-1 0,-5 -2,-6 -3,-9 -1,-2 -1,-3 -3,-4 -3,-1 -2,1 -4,-2 -1,-1 -2,-2 -4,-2 -4,-1 -2,0 -4,-2 -2,-2 -6,-2 -9,-1 -5,0 -6,-2 -9,-3 -2,-2 -3,-2 -4,-3 -1,-4 -4,-6 -8,-10 -3,-3 -4,-3 -9,-3 -1,-1 0,-2 -3,-4 -11,-8 -16,-25 -20,-28 -1,5 -2,11 -11,9 -1,4 1,10 -5,24 -1,3 -2,5 -3,7 1,1 1,1 2,1 -2,1 -4,2 -6,2 1,-3 5,-14 5,-17 -8,1 -25,-1 -32,-4 0,-3 1,-5 1,-8 1,-7 1,-15 0,-23 -1,-5 -1,-10 -2,-14 -1,-9 -1,-7 -2,-15 -1,0 -12,2 -15,2 -3,1 -7,2 -10,3 -1,1 -2,1 -3,2 -8,4 -14,10 -19,17 -4,7 -7,16 -10,25 -2,7 -6,16 -8,24l0 1c0,1 0,1 0,2z"/>
   <path class="fil2" d="M157 53c0,1 1,3 2,4 0,2 1,3 3,4 0,2 -3,7 -4,9 -2,-1 -2,-3 -4,-3l-1 1c-6,-2 -5,-2 -11,-2 -1,-4 -2,-7 0,-12 1,-3 3,-7 5,-8 5,-4 16,2 15,-13 1,1 1,2 2,3 1,2 4,3 7,4 10,4 -1,20 -4,18 -1,0 -4,-5 -10,-5zm-38 -31c-2,1 -3,4 -3,6 -1,3 0,6 1,8 -1,1 -2,2 -2,3 5,3 6,4 13,4 1,2 1,3 3,4 0,-4 -1,-8 1,-11 3,-7 10,-5 9,1 0,2 -1,3 -2,5 -1,2 1,0 -2,4 -4,5 -7,5 -10,9 -5,6 -4,13 0,19 0,2 1,3 2,5l3 4c-1,-1 -2,-1 -3,-2 0,0 -1,-1 -2,-2 -1,1 0,0 -1,1 0,0 0,0 -1,1 0,0 0,1 -1,1 -4,5 -5,10 -7,12 0,-2 -1,-6 -1,-8 -1,-2 -2,-4 -3,-6l-4 0c1,-1 3,-1 4,-2 3,0 3,1 5,2 0,-4 -9,-20 -11,-33 0,-4 -1,-8 3,-8 2,1 1,0 3,0 -1,-1 -2,-2 -3,-2 -2,-1 -3,-1 -4,0 -1,1 -2,1 -3,2l-3 3c-2,2 1,15 1,19 3,14 3,25 2,40 5,1 8,2 13,2 3,1 11,2 14,1l0 -1c2,-5 2,-15 2,-20 2,1 7,6 12,2 1,-2 1,-3 2,-6 0,-1 3,-3 4,-4 1,1 1,1 1,1l0 2c1,0 1,0 1,0 1,-2 3,-3 3,-6 4,1 4,5 7,-1 6,-11 4,-9 8,-9 2,0 3,-2 4,-3 0,-1 1,-1 1,-2l4 -5c2,2 2,3 6,4 3,0 6,0 7,-3 -1,0 -4,0 -4,-4 6,0 10,-3 9,-10 -2,1 -2,1 -4,0 -1,0 -2,-1 -3,-3 3,-1 5,-3 4,-7 -1,0 -3,1 -6,-1 -3,-3 -2,-7 -5,-12 -1,-4 -5,-6 -8,-8 -1,0 -2,-1 -3,-1 -3,-1 -5,-6 -14,-7 -5,0 -10,1 -12,4 -3,2 -2,1 -7,2 -12,2 -14,15 -15,17 -1,1 -2,2 -3,2 -2,0 -1,-1 -2,-3z"/>
   <path class="fil2" d="M153 173c-1,4 2,5 -6,6 -1,0 -3,0 -5,0 -2,0 -2,-1 -4,-1 0,5 -3,9 5,8 2,0 4,0 6,-1 3,0 2,-1 4,-3 1,-2 3,-2 5,-2 4,0 4,0 6,2 2,1 2,1 5,1 2,0 5,0 7,-1 0,0 1,-5 2,-6 -3,0 -5,0 -7,0 -4,1 -4,-1 -5,-2 -3,-2 -3,-1 -6,-1 -2,0 -6,0 -7,0z"/>
   <path class="fil2" d="M189 164c4,-1 10,-2 13,1 4,4 -6,4 -9,4 -1,-1 -4,-5 -4,-5zm7 -4c-1,1 -6,2 -8,1 -2,0 -5,-4 -5,-5 3,0 6,0 9,0 2,1 4,2 4,4zm-3 -4c4,0 8,3 6,5 -1,1 -2,-2 -3,-3 -2,-2 -2,-1 -3,-2zm-2 15l-1 0c-1,1 -1,1 -1,1 -1,-2 -2,-3 -3,-4l-9 -13 3 0c1,2 -1,-1 2,4l6 8c1,1 2,3 3,4zm-16 -17c0,2 12,16 13,19 4,-1 16,-1 19,-2 5,-2 1,-7 -3,-8 -1,0 -4,-1 -5,-1 1,-1 3,-1 2,-3 0,-3 -6,-4 -8,-5 -3,0 -16,0 -18,0z"/>
   <path class="fil2" d="M231 156c-2,0 -3,-1 -5,-1 -1,-1 -4,-1 -5,-2 2,0 4,0 6,1 1,0 1,0 2,0 2,1 2,1 2,1 0,0 0,1 0,1zm4 6c-1,1 0,0 -1,1 0,0 0,0 0,1 -1,2 -7,1 -9,1 -3,-1 -6,-3 -7,-5 -3,-5 2,-6 6,-5 6,1 2,3 10,1 -2,-3 -20,-6 -23,-1 -1,3 1,6 2,7 3,3 8,5 13,6 5,1 14,2 14,-4l-5 -2z"/>
   <path class="fil2" d="M194 168c2,0 5,0 7,-1 0,-4 -7,-3 -10,-3 0,1 2,3 3,4z"/>
   <path class="fil2" d="M151 166c0,0 0,0 1,0l6 0c0,-1 0,0 0,-1l-7 -6 0 7z"/>
   <path class="fil2" d="M188 161c2,0 5,0 6,-1 1,-4 -5,-3 -8,-3 0,1 1,2 2,4z"/>
  </g>
  <path class="fil0" d="M152 120l6 -4 7 -3c0,0 0,0 0,0 -2,-2 -6,0 -8,1 -2,1 -4,4 -5,6z"/>
  <path class="fil0" d="M212 172c1,1 2,2 4,3 4,2 12,4 15,2 -4,-1 -6,0 -11,-2 -3,-1 -6,-2 -8,-3z"/>
  <path class="fil3" d="M49 157c3,3 9,0 11,-2 -2,0 -3,1 -5,1 -2,1 -4,1 -6,1z"/>
  <path class="fil0" d="M193 156c1,1 1,0 3,2 1,1 2,4 3,3 2,-2 -2,-5 -6,-5z"/>
  <path class="fil0" d="M231 156c0,0 0,-1 0,-1 0,0 0,0 -2,-1 -1,0 -1,0 -2,0 -2,-1 -4,-1 -6,-1 1,1 4,1 5,2 2,0 3,1 5,1z"/>
  <path class="fil4" d="M36 203l0 -18 7 -7 1 1 0 24 -8 0zm21 31l1 7 -9 5 -13 0 0 -26 -15 0 0 -6 23 0 0 25 13 0 0 -5zm-36 4l1 3 -9 5 -13 0 0 -61 7 -7 1 1 0 60 13 0 0 -1zm211 -2l0 0 0 3 -18 0c-4,0 -8,0 -12,-2 -3,-2 -6,-4 -7,-7 -1,-3 -2,-5 -3,-8 0,-1 0,-2 0,-3 0,-1 0,-1 0,-2 0,-1 0,-1 0,-2 0,0 0,-1 0,-2 1,-4 2,-6 3,-9 0,0 1,-1 1,-1 -1,0 -1,0 -2,0 -3,2 -6,5 -7,7 -1,3 -2,6 -3,9 0,1 0,2 0,2 0,1 0,1 0,2 0,1 0,1 0,2 0,1 0,2 0,3 1,3 2,6 3,8 1,3 4,5 7,7 4,2 8,3 12,3l16 0 3 0 9 0 6 0 8 -5 2 -4 -2 2 -15 0 21 -30 -19 -28 -3 -3 -6 7 20 30 -14 21zm-25 -8l17 0 9 -5 -3 -1 -25 0 0 1 0 1c1,2 1,3 2,4zm-2 -18l3 0 16 0 9 -5 -3 -1 -14 0 -4 0c-3,0 -5,1 -6,3 0,1 0,2 -1,3 0,0 0,0 0,0zm50 18l11 18 15 0 9 -5 -1 -2 -15 0 -13 -21 -6 10zm18 -49l-1 0 -7 6 -6 10 2 3 12 -19zm-212 22l7 -7 3 1 -2 0 0 9 20 0c3,0 5,0 7,1 2,1 3,3 3,6l0 1 -9 0c-1,0 -1,0 -2,-1 -2,0 -4,-1 -7,-1l-20 0 0 -9zm50 37l1 3 -9 5 -31 0c-1,0 -2,0 -3,-1 -1,0 -2,0 -3,0 -2,-1 -4,-3 -6,-5 -1,-2 -2,-4 -2,-7 0,-2 0,-4 1,-5 0,-2 1,-3 1,-4 1,-2 9,-8 11,-9 -1,1 -2,2 -3,3 -1,1 -1,2 -1,4 -1,1 -1,3 -1,5 0,2 1,5 2,7 2,2 4,4 6,5 1,0 2,0 3,0 1,0 2,0 3,0l31 0 0 -1zm-20 -8l0 -3 -13 0c0,0 0,-1 0,-1 0,-2 1,-3 2,-4 2,0 3,-1 6,-1l13 0 0 9 -8 0zm23 -29l7 -7 2 1 -1 0 0 44 11 0 0 -2 2 4 -9 5 -12 0 0 -45zm40 13l0 0 -8 6 -11 0 0 -6c0,-2 -1,-3 -1,-4 0,0 -1,0 -1,0l0 -7 5 0 2 0c0,0 1,1 1,1 1,1 2,2 2,4l0 6 11 0zm4 -4l-4 0 0 -4c0,-2 0,-4 -1,-6 0,0 0,-1 -1,-2l4 -4 2 1 8 0 0 -5c0,-1 0,-3 0,-5 0,-2 2,-4 4,-5 1,0 2,-1 3,-1 -6,1 -14,5 -15,12 0,2 0,3 0,4l-1 0 0 9 9 0 0 35 12 0 0 -2 1 4 -9 5 -12 0 0 -36zm29 -23l3 2 -9 5 -3 0 0 -3c0,-1 0,-2 1,-3 1,0 2,-1 4,-1l4 0zm0 17l3 1 -9 5 -3 0 0 -6 9 0z"/>
  <path class="fil5" d="M233 237l19 -28 -21 -31 18 0 12 18 12 -18 17 0 -20 30 21 33 -18 0 -12 -21 -13 21 -34 0c-4,0 -8,-1 -12,-3l0 0 0 0c-3,-2 -6,-4 -8,-7 -2,-3 -2,-6 -3,-9 0,-1 0,-2 0,-3 0,-1 0,-1 0,-2 0,-1 0,-1 0,-2 0,-1 0,-2 0,-3 1,-3 1,-6 3,-8 2,-4 5,-6 8,-8l0 0 0 0c4,-2 8,-2 12,-2l19 0 0 11 -21 0c-2,0 -4,1 -5,3 0,0 0,1 -1,2 0,1 0,1 0,1l27 0 0 12 -27 0 0 1c1,2 2,4 3,4 3,1 5,1 7,1l17 0 0 8zm-211 -35l21 0 0 -24 15 0 0 63 -15 0 0 -26 -21 0 0 26 -15 0 0 -63 15 0 0 24zm76 9l0 0c0,-2 -1,-4 -2,-5 -3,-1 -5,-1 -7,-1l-21 0 0 -11 25 0c2,0 3,0 4,0 4,0 8,2 11,4l0 1 0 0c3,3 4,8 4,12l0 30 -32 0c-1,0 -2,-1 -3,-1 -1,0 -2,0 -3,0 -3,-1 -5,-3 -7,-5 -1,-3 -2,-6 -2,-8 0,-2 0,-4 0,-6 1,-1 1,-2 2,-3 2,-3 4,-4 6,-5 3,-2 7,-2 11,-2l14 0zm43 -6c-1,0 -1,0 -1,0l-5 0 0 36 -14 0 0 -47 20 0c3,0 6,0 8,1l0 0 1 0c2,1 3,3 4,5l0 0 0 0c1,2 1,4 1,6l0 9 -13 0 0 -7c0,-1 -1,-2 -1,-3zm39 -16c-1,1 -1,1 -1,2l0 3 11 0 0 11 -11 0 0 36 -15 0 0 -36 -8 0 0 -11 8 0 0 -4c0,-1 1,-3 1,-5l0 0 0 0c0,-3 2,-5 4,-6l0 0 0 0c3,-1 6,-1 9,-1l12 0 0 11 -7 0c-1,0 -2,0 -3,0zm-82 40l0 -7 -12 0c-2,0 -4,1 -5,1 -1,1 -2,2 -2,3 0,1 1,1 1,2 1,1 3,1 5,1l13 0z"/>
  <path class="fil6" d="M21 179l0 24 23 0 0 -24 13 0 0 60 -13 0 0 -25 -23 0 0 25 -13 0 0 -60 13 0zm48 16l24 0c2,0 3,0 4,0 4,0 7,2 10,4 3,4 4,8 4,12l0 28 -31 0c-1,0 -2,0 -3,0 -1,0 -2,0 -3,0 -2,-1 -4,-3 -6,-5 -1,-2 -2,-5 -2,-7 0,-2 0,-4 1,-5 0,-2 0,-3 1,-4 1,-2 3,-3 5,-4 3,-1 6,-2 11,-2l15 0 0 -1c0,-3 -1,-5 -3,-6 -2,-1 -4,-1 -7,-1l-20 0 0 -9zm16 35l14 0 0 -9 -13 0c-3,0 -4,1 -6,1 -1,1 -2,2 -2,4 0,1 1,2 1,3 1,1 3,1 6,1zm37 -35l19 0c3,0 6,0 8,1 2,1 3,2 4,4 1,2 1,4 1,6l0 8 -11 0 0 -6c0,-2 -1,-3 -2,-4 0,0 -1,-1 -1,-1l-2 0 -5 0 0 36 -11 0 0 -44zm44 9l-9 0 0 -9 9 0 0 -5c0,-1 0,-3 0,-5 0,-2 2,-4 4,-5 2,-1 4,-1 8,-1l11 0 0 8 -6 0c-2,0 -3,1 -4,1 -1,1 -1,2 -1,3l0 4 11 0 0 9 -11 0 0 35 -12 0 0 -35zm48 35c-4,0 -8,0 -12,-2 -3,-2 -6,-4 -7,-7 -1,-3 -2,-5 -3,-8 0,-1 0,-2 0,-3 0,-1 0,-1 0,-2 0,-1 0,-1 0,-2 0,0 0,-1 0,-2 1,-4 2,-6 3,-9 1,-2 4,-5 7,-7 4,-1 8,-2 12,-2l18 0 0 9 -16 0 -4 0c-3,0 -5,1 -6,3 0,1 0,2 -1,3 0,1 0,2 0,3l27 0 0 9 -27 0 0 1 0 1c1,3 2,5 4,5 2,1 4,1 7,1l16 0 0 9 -18 0zm40 -30l-21 -30 15 0 13 19 12 -19 15 0 -20 29 21 31 -15 0 -13 -21 -13 21 -15 0 21 -30z"/>
  <path class="fil7" d="M278 180c0,0 1,0 2,1l0 0c1,0 1,1 1,2 0,1 0,2 -1,3l0 0c-1,0 -2,1 -2,1 -1,0 -2,-1 -3,-1l0 0c-1,-1 -1,-2 -1,-3 0,-1 0,-2 1,-2l0 0c1,-1 2,-1 3,-1zm2 1c-1,0 -2,-1 -2,-1 -1,0 -2,1 -3,1 0,1 0,1 0,2 0,1 0,2 0,2 1,1 2,1 3,1 0,0 1,0 2,-1 0,0 0,-1 0,-2 0,-1 0,-1 0,-2zm-4 4l0 -4 2 0c0,0 0,1 0,1 1,0 1,0 1,0 0,0 0,0 0,0 0,1 0,1 0,1 0,0 -1,0 -1,0 0,1 0,1 1,1 0,0 0,0 0,0l0 1 -1 0 0 -1c0,0 0,0 0,0 0,0 -1,0 -1,0 0,0 0,0 0,0l0 0 0 1 -1 0zm1 -2l0 0c1,0 1,0 1,0 0,0 0,0 0,0 0,0 0,0 0,-1 0,0 0,0 0,0 0,0 0,0 0,0 0,0 0,0 -1,0l0 0 0 1z"/>
 </g>
</svg>
