<?xml version="1.0" encoding="UTF-8"?>
<!DOCTYPE svg PUBLIC "-//W3C//DTD SVG 1.1//EN" "http://www.w3.org/Graphics/SVG/1.1/DTD/svg11.dtd">
<!-- Creator: CorelDRAW X6 -->
<svg xmlns="http://www.w3.org/2000/svg" xml:space="preserve" width="146.302mm" height="123.293mm" version="1.1" style="shape-rendering:geometricPrecision; text-rendering:geometricPrecision; image-rendering:optimizeQuality; fill-rule:evenodd; clip-rule:evenodd"
viewBox="0 0 300 253"
 xmlns:xlink="http://www.w3.org/1999/xlink">
 <defs>
  <style type="text/css">
   <![CDATA[
    .fil1 {fill:none}
    .fil2 {fill:#706355}
    .fil0 {fill:#FEFEFE}
    .fil4 {fill:white}
    .fil3 {fill:#17B0B3;fill-rule:nonzero}
    .fil5 {fill:#6BEBED;fill-rule:nonzero}
   ]]>
  </style>
 </defs>
 <g id="Layer_x0020_1">
  <metadata id="CorelCorpID_0Corel-Layer"/>
  <path class="fil0" d="M41 108c4,-3 11,-6 17,-4 -1,0 -6,2 -7,2 -5,3 -11,9 -13,14 8,-7 23,-9 33,-2 3,-3 3,-16 2,-21 0,-2 -1,-5 -1,-7 3,2 5,9 6,11 2,-12 2,-22 -2,-33 -1,-2 -2,-3 -3,-5 0,-1 -2,-2 -2,-3 1,0 4,3 5,4 9,12 8,30 5,44 0,3 -1,5 -2,8 -2,7 -2,4 -1,8 3,-3 7,-11 9,-15 5,-13 8,-28 4,-41 -5,-14 -16,-21 -27,-10 -7,7 -10,15 -12,24 -2,6 -1,9 -5,14 -3,4 -4,7 -6,12z"/>
  <path class="fil0" d="M106 150l1 -1c6,6 13,2 17,0 1,1 2,2 3,2 0,1 2,2 2,2 3,3 1,6 4,6 1,0 2,-2 3,-3 -1,-1 -1,-2 -2,-4 0,-3 -2,-3 -4,-5 -1,-1 -2,-2 -2,-4 1,1 2,1 3,2 4,5 4,1 7,13 2,4 9,7 2,-11 0,-1 -4,-5 -6,-6 -1,-1 -2,-2 -1,-3 1,1 4,3 5,4 4,2 3,2 5,5 0,1 1,2 1,3 2,2 2,5 4,6 1,1 2,1 3,0 1,-1 -1,-5 -1,-7 -1,-1 -4,-8 -5,-9 -2,-2 -8,-5 -8,-7 1,0 4,2 5,3 2,1 4,2 5,4 1,2 2,3 3,5 1,2 2,4 5,4 1,-3 -2,-9 -3,-10 -4,-7 -3,-5 -12,-10 -5,-3 -5,-1 -13,1 -1,1 -2,1 -3,1 -3,2 -7,3 -10,4 -5,2 -7,1 -13,1 -8,-1 -16,-2 -24,-4 -7,-2 -14,-6 -21,1 -4,4 -6,9 -5,15 1,3 1,3 4,4 6,2 18,1 26,0 6,0 21,-2 25,-2z"/>
  <path class="fil1" d="M157 178c2,0 5,0 7,0 4,-1 4,-1 6,1 2,1 2,3 5,2 3,0 5,0 8,0 -1,1 -2,6 -2,6 -2,1 -5,1 -7,1 -3,1 -4,0 -6,-1 -2,-2 -2,-2 -5,-2 -2,0 -5,0 -6,2 -1,2 -1,3 -4,3 -2,1 -4,1 -6,1 -8,1 -5,-3 -5,-8 2,0 2,1 4,1 2,0 4,0 5,0 8,-1 5,-2 6,-6zm-4 -24c1,2 0,-1 4,2 1,1 1,1 2,2 0,0 1,1 2,1l5 5c1,1 1,1 2,2 0,1 1,1 1,1l6 5c1,1 6,6 6,6 -2,1 -6,1 -8,1 -1,-1 -2,-4 -4,-4 -2,0 -14,1 -15,2 0,1 0,3 0,4 -2,0 -8,1 -9,0 0,0 0,-1 0,-1 0,0 0,-1 0,-1 0,-1 0,-2 0,-3l0 -16c-1,1 -1,1 -2,1 0,1 0,1 -1,1 0,3 1,9 0,11 -1,-4 -1,-3 -2,-4 0,-1 0,-5 0,-6 -1,-1 -2,-1 -2,-1 -1,-1 -1,-1 -2,-2 -1,1 -3,2 -5,1 -2,-1 -2,-2 -3,-5 -7,-1 -3,-2 -8,-1 -5,2 -6,1 -10,1 -4,10 -4,9 -7,22l-12 4c-2,1 -10,3 -12,4 5,0 11,-2 16,-3 6,-2 43,-12 45,-12 1,2 0,10 0,13 0,6 -1,7 5,8 0,1 0,2 0,3 0,1 1,1 1,1 1,0 1,0 1,-2 0,-1 0,-1 0,-2 2,0 6,0 7,-1 3,0 2,-3 4,-5l9 -1c1,2 1,2 3,3 1,1 1,1 3,1l0 4 1 0 0 -4c3,0 7,0 8,-2 1,-2 1,-5 1,-6 1,-1 1,-1 1,-2 1,-2 -5,-6 -7,-7 -1,-1 -3,-2 -4,-4l-11 -10c-3,-1 -7,-6 -9,-4z"/>
  <path class="fil0" d="M192 150c1,-1 1,-2 2,-2 0,4 -1,5 2,7 1,1 2,1 3,1 2,0 3,2 4,1 1,0 2,-2 1,-3 -1,-2 -1,-2 -2,-3 1,-4 1,-6 5,-8 2,3 1,2 4,4 3,1 2,3 4,7 0,1 1,2 2,2 5,2 2,-4 1,-9 0,-2 -1,-3 -2,-6 -3,-6 -5,-3 -13,-3 -2,0 -2,-1 -4,-1 -3,-2 -12,-8 -14,-8 -5,0 -9,4 -11,7 -1,2 -2,4 -2,7 1,2 4,2 6,3 2,0 5,1 7,1 3,1 5,2 7,3z"/>
  <path class="fil0" d="M161 54c6,1 10,5 11,6 2,1 14,-15 4,-19 -3,-1 -6,-2 -8,-4 0,-1 -1,-2 -1,-3 0,15 -10,9 -16,13 -2,2 -4,5 -5,9 -2,5 -1,8 0,12 7,0 6,-1 11,2l1 -2c3,0 3,3 5,3 1,-1 3,-7 3,-9 -1,-1 -2,-1 -3,-3 -1,-1 -2,-4 -2,-5z"/>
  <path class="fil0" d="M37 138c1,-2 1,-4 5,-7 1,-1 5,-4 7,-5 -1,1 -9,7 -9,18 1,8 6,14 14,14 -1,-1 -3,-1 -5,-4 -7,-9 -1,-23 9,-27 6,-2 10,-1 14,1 0,-8 -13,-13 -23,-10 -5,2 -8,5 -11,8 -1,1 -2,3 -3,5 -1,2 1,5 2,7z"/>
  <path class="fil0" d="M147 212c0,-7 -1,-7 2,-8l71 -13c3,0 3,0 5,-2 1,-1 3,-1 4,-2 -10,1 -25,4 -35,6l-44 8c-4,0 -4,1 -8,0 -6,-1 -49,-10 -52,-10 2,1 53,13 54,14 1,1 1,5 1,7l2 0z"/>
  <path class="fil0" d="M162 145c0,-3 0,-6 1,-8 1,1 -1,5 2,9 1,2 4,4 8,5 -6,-4 -7,-12 -3,-18 4,-4 10,-9 18,-6 0,-2 -2,-3 -3,-5 -2,-1 -2,-2 -5,-3 -6,-1 -10,1 -14,3 -8,6 -9,19 -4,23z"/>
  <path class="fil1" d="M152 151c1,2 1,1 4,1 1,0 2,1 3,2 0,1 1,1 2,2 1,1 6,6 8,6 1,0 6,-1 7,-2l1 -3c1,0 14,-1 17,-1 -2,-3 -2,-2 -10,-2 -1,-1 -3,-1 -5,-1 -5,1 -9,1 -14,-2 -2,-1 0,-1 -4,-2 -2,0 -3,-1 -4,-1 -2,2 0,2 -5,3 0,0 0,0 0,0z"/>
  <path class="fil0" d="M241 167l6 1c0,6 -10,6 -14,5 -6,-1 -11,-3 -14,-6 -1,-1 -4,-5 -2,-7 3,-6 21,-3 23,1 -7,1 -3,-1 -10,-2 -4,-1 -9,1 -6,5 1,2 4,4 7,5 3,1 8,2 10,-1 0,0 0,0 0,0 0,-1 0,-1 0,-1zm-28 0l1 -4c1,1 1,2 3,4 1,1 2,2 4,3l3 2c2,2 4,3 6,3 -1,-1 -2,-1 -3,-2 5,1 12,3 18,1 4,-2 5,-5 3,-6 0,-1 -7,-2 -8,-2 -1,2 -1,2 -3,3 -7,2 -18,-8 -9,-9 4,0 5,1 8,2 0,1 -2,4 -2,5l2 -4 5 -1c-1,2 -1,2 -1,3 0,0 0,0 0,0 1,-1 2,-3 2,-5 -1,-2 -14,-6 -22,-3 -3,1 -5,-1 -6,5 0,1 0,2 -1,2l0 3z"/>
  <path class="fil0" d="M180 159c2,-1 16,-1 18,0 3,0 9,2 9,5 0,1 -1,2 -2,2 1,1 3,1 4,1 5,2 9,6 4,8 -4,2 -15,2 -20,3 -1,-3 -13,-18 -13,-19zm2 15c-1,-2 -2,-4 -4,-6 -1,-2 -1,-3 0,-9 1,1 11,14 12,16 3,4 2,4 9,4 4,-1 9,-1 13,-1l-1 5c0,0 1,-4 1,-6 4,0 7,-2 4,-6 -2,-4 -6,-4 -8,-5 0,0 0,0 0,0 0,0 0,0 0,0 4,-4 -6,-8 -10,-8 -4,-1 -17,0 -20,0 0,2 -1,3 -1,5 0,2 -1,3 1,5 0,1 1,2 2,3 1,1 2,3 2,3z"/>
  <path class="fil0" d="M155 163l7 7c1,0 0,0 1,1l-7 0c0,0 0,0 0,-1l-1 -7zm-3 -5l1 14 13 -1c0,0 0,0 0,0 -1,-1 -8,-7 -8,-8 -1,-2 0,-1 -1,-2 -1,-1 -3,-3 -4,-4 0,1 0,1 -1,1z"/>
  <path class="fil0" d="M226 155c0,-1 0,-2 -1,-4 -1,-6 -2,-10 -7,-10 2,6 1,0 2,8 1,4 1,7 6,6z"/>
  <path class="fil0" d="M196 176c-1,-1 -2,-3 -3,-4l-6 -8c-3,-5 -1,-3 -2,-4l-4 0 10 12c1,2 2,3 3,5 0,-1 1,-1 1,-1l1 0z"/>
  <path class="fil0" d="M207 172c-2,1 -5,1 -8,1 0,-1 -2,-3 -2,-4 3,0 10,-1 10,3zm-13 -4c0,1 4,5 5,6 3,0 13,0 8,-4 -3,-3 -8,-2 -13,-2z"/>
  <path class="fil0" d="M232 155c1,-2 -1,-5 -2,-6 -1,-2 -2,-4 -4,-4 1,6 1,11 6,10 0,0 0,0 0,0z"/>
  <path class="fil0" d="M193 165c-1,-2 -2,-2 -2,-3 3,0 9,-1 9,2 -2,1 -5,1 -7,1zm9 0c0,-2 -3,-4 -5,-4 -2,-1 -6,0 -8,0 0,0 3,5 4,5 3,0 7,0 9,-1z"/>
  <path class="fil0" d="M155 175c3,0 11,0 13,-1 0,-1 -1,-2 -2,-2l-12 1 1 2z"/>
  <path class="fil0" d="M195 187c7,-1 19,0 20,-7 -1,3 -3,4 -6,4 -2,1 -16,2 -17,2 -1,0 -4,-4 -5,-5 1,1 2,2 3,4 1,2 1,2 4,2 1,3 -1,2 1,3 1,0 0,1 0,-1 0,-1 0,-1 0,-2z"/>
  <g id="_1645419504">
   <path class="fil2" d="M147 212l-2 0c0,-2 0,-6 -1,-7 -1,-1 -52,-13 -54,-14 3,0 46,9 52,10 4,1 4,0 8,0l44 -8c10,-2 25,-5 35,-6 -1,1 -3,1 -4,2 -2,2 -2,2 -5,2l-71 13c-3,1 -2,1 -2,8zm48 -25c0,1 0,1 0,2 0,2 1,1 0,1 -2,-1 0,0 -1,-3 -3,0 -3,0 -4,-2 -1,-2 -2,-3 -3,-4 1,1 4,5 5,5 1,0 15,-1 17,-2 3,0 5,-1 6,-4 -1,7 -13,6 -20,7zm23 -10c2,1 5,2 9,3 4,2 6,1 11,2 -4,2 -12,0 -16,-3 -2,0 -3,-1 -4,-2zm-64 -4l12 -1c1,0 2,1 2,2 -2,1 -10,1 -13,1l-1 -2zm-1 -16c1,1 3,3 4,4 1,1 0,0 1,2 0,1 7,7 8,8 0,0 0,0 0,0l-13 1 -1 -14c1,0 1,0 1,-1zm60 7c1,0 1,-1 1,-2 1,-6 3,-4 6,-5 8,-3 21,1 22,3 0,2 -1,4 -2,5 0,0 0,0 0,0 0,-1 0,-1 1,-3l-5 1 -2 4c0,-1 2,-4 2,-5 -3,-1 -4,-2 -8,-2 -9,1 2,11 9,9 2,-1 2,-1 3,-3 1,0 8,1 8,2 2,1 1,4 -3,6 -6,2 -13,0 -18,-1 1,1 2,1 3,2 -2,0 -4,-1 -6,-3l-3 -2c-2,-1 -3,-2 -4,-3 -2,-2 -2,-3 -3,-4l-1 4 0 -3zm-31 10c0,0 -1,-2 -2,-3 -1,-1 -2,-2 -2,-3 -2,-2 -1,-3 -1,-5 0,-2 1,-3 1,-5 3,0 16,-1 20,0 4,0 14,4 10,8 0,0 0,0 0,0 0,0 0,0 0,0 2,1 6,1 8,5 3,4 0,6 -4,6 0,2 -1,6 -1,6l1 -5c-4,0 -9,0 -13,1 -7,0 -6,0 -9,-4 -1,-2 -11,-15 -12,-16 -1,6 -1,7 0,9 2,2 3,4 4,6zm-132 -13c3,1 4,0 7,0 2,-1 3,-2 5,-2 -3,2 -8,6 -12,2zm103 -7c2,-2 6,3 9,4l11 10c1,2 3,3 4,4 2,1 8,5 7,7 0,1 0,1 -1,2 0,1 0,4 -1,6 -1,2 -5,2 -8,2l0 4 -1 0 0 -4c-2,0 -2,0 -3,-1 -2,-1 -2,-1 -3,-3l-9 1c-2,2 -1,5 -4,5 -1,1 -5,1 -7,1 0,1 0,1 0,2 0,2 0,2 -1,2 0,0 -1,0 -1,-1 0,-1 0,-2 0,-3 -6,-1 -5,-2 -5,-8 0,-3 1,-11 0,-13 -2,0 -39,10 -45,12 -5,1 -11,3 -16,3 2,-1 10,-3 12,-4l12 -4c3,-13 3,-12 7,-22 4,0 5,1 10,-1 5,-1 1,0 8,1 1,3 1,4 3,5 2,1 4,0 5,-1 1,1 1,1 2,2 0,0 1,0 2,1 0,1 0,5 0,6 1,1 1,0 2,4 1,-2 0,-8 0,-11 1,0 1,0 1,-1 1,0 1,0 2,-1l0 16c0,1 0,2 0,3 0,0 0,1 0,1 0,0 0,1 0,1 1,1 7,0 9,0 0,-1 0,-3 0,-4 1,-1 13,-2 15,-2 2,0 3,3 4,4 2,0 6,0 8,-1 0,0 -5,-5 -6,-6l-6 -5c0,0 -1,0 -1,-1 -1,-1 -1,-1 -2,-2l-5 -5c-1,0 -2,-1 -2,-1 -1,-1 -1,-1 -2,-2 -4,-3 -3,0 -4,-2zm12 -3c5,3 9,3 14,2 2,0 4,0 5,1 8,0 8,-1 10,2 -3,0 -16,1 -17,1l-1 3c-1,1 -6,2 -7,2 -2,0 -7,-5 -8,-6 -1,-1 -2,-1 -2,-2 -1,-1 -2,-2 -3,-2 -3,0 -3,1 -4,-1 0,0 0,0 0,0 5,-1 3,-1 5,-3 1,0 2,1 4,1 4,1 2,1 4,2zm67 4c0,0 0,0 0,0 -5,1 -5,-4 -6,-10 2,0 3,2 4,4 1,1 3,4 2,6zm-40 -5c-2,-1 -4,-2 -7,-3 -2,0 -5,-1 -7,-1 -2,-1 -5,-1 -6,-3 0,-3 1,-5 2,-7 2,-3 6,-7 11,-7 2,0 11,6 14,8 2,0 2,1 4,1 8,0 10,-3 13,3 1,3 2,4 2,6 1,5 4,11 -1,9 -1,0 -2,-1 -2,-2 -2,-4 -1,-6 -4,-7 -3,-2 -2,-1 -4,-4 -4,2 -4,4 -5,8 1,1 1,1 2,3 1,1 0,3 -1,3 -1,1 -2,-1 -4,-1 -1,0 -2,0 -3,-1 -3,-2 -2,-3 -2,-7 -1,0 -1,1 -2,2zm34 5c-5,1 -5,-2 -6,-6 -1,-8 0,-2 -2,-8 5,0 6,4 7,10 1,2 1,3 1,4zm-120 -5c-4,0 -19,2 -25,2 -8,1 -20,2 -26,0 -3,-1 -3,-1 -4,-4 -1,-6 1,-11 5,-15 7,-7 14,-3 21,-1 8,2 16,3 24,4 6,0 8,1 13,-1 3,-1 7,-2 10,-4 1,0 2,0 3,-1 8,-2 8,-4 13,-1 9,5 8,3 12,10 1,1 4,7 3,10 -3,0 -4,-2 -5,-4 -1,-2 -2,-3 -3,-5 -1,-2 -3,-3 -5,-4 -1,-1 -4,-3 -5,-3 0,2 6,5 8,7 1,1 4,8 5,9 0,2 2,6 1,7 -1,1 -2,1 -3,0 -2,-1 -2,-4 -4,-6 0,-1 -1,-2 -1,-3 -2,-3 -1,-3 -5,-5 -1,-1 -4,-3 -5,-4 -1,1 0,2 1,3 2,1 6,5 6,6 7,18 0,15 -2,11 -3,-12 -3,-8 -7,-13 -1,-1 -2,-1 -3,-2 0,2 1,3 2,4 2,2 4,2 4,5 1,2 1,3 2,4 -1,1 -2,3 -3,3 -3,0 -1,-3 -4,-6 0,0 -2,-1 -2,-2 -1,0 -2,-1 -3,-2 -4,2 -11,6 -17,0l-1 1zm56 -5c-5,-4 -4,-17 4,-23 4,-2 8,-4 14,-3 3,1 3,2 5,3 1,2 3,3 3,5 -8,-3 -14,2 -18,6 -4,6 -3,14 3,18 -4,-1 -7,-3 -8,-5 -3,-4 -1,-8 -2,-9 -1,2 -1,5 -1,8zm-125 -7c-1,-2 -3,-5 -2,-7 1,-2 2,-4 3,-5 3,-3 6,-6 11,-8 10,-3 23,2 23,10 -4,-2 -8,-3 -14,-1 -10,4 -16,18 -9,27 2,3 4,3 5,4 -8,0 -13,-6 -14,-14 0,-11 8,-17 9,-18 -2,1 -6,4 -7,5 -4,3 -4,5 -5,7zm119 -15c1,-2 3,-5 5,-6 2,-1 6,-2 9,-1 0,0 0,0 -1,0l-7 3 -6 4zm-115 -15c2,-5 3,-8 6,-12 4,-5 3,-8 5,-14 2,-9 5,-17 12,-24 11,-11 22,-4 27,10 4,13 1,28 -4,41 -2,4 -6,12 -9,15 -1,-4 -1,-1 1,-8 1,-3 2,-5 2,-8 3,-14 4,-32 -5,-44 -1,-1 -4,-4 -5,-4 0,1 2,2 2,3 1,2 2,3 3,5 4,11 4,21 2,33 -1,-2 -3,-9 -6,-11 0,2 1,5 1,7 1,5 1,18 -2,21 -10,-7 -25,-5 -33,2 2,-5 8,-11 13,-14 1,0 6,-2 7,-2 -6,-2 -13,1 -17,4zm-10 14c0,0 0,0 -1,0l-2 4 -1 6 1 4 1 5 0 0 1 2 0 0 4 3 -16 69 30 0c30,9 3,-26 54,-4 16,7 37,11 57,9 23,-1 47,-9 64,-21l9 -6c3,-2 11,-9 14,-12 1,-1 2,-3 4,-5 1,-1 4,-5 6,-8 -1,0 -2,0 -2,-1 -1,0 -3,0 -4,0 -1,0 -4,-1 -5,-1 -1,-1 -1,-3 -1,-3l-1 -2c-1,-2 -1,-2 -3,-3 -2,-1 -3,-2 -5,-2 -1,-5 -2,-6 -4,-9 -1,-2 -1,-3 -3,-4 -3,-1 -2,1 -4,-2 -1,-1 -2,-2 -4,-2 -4,-1 -2,0 -4,-2 -2,-3 -6,-2 -10,-2 -4,1 -6,-1 -9,-3 -2,-1 -3,-1 -4,-3 -1,-4 -4,-6 -8,-10 -3,-3 -4,-3 -9,-3 -1,-1 0,-1 -4,-4 -11,-8 -16,-25 -20,-28 -1,4 -2,11 -11,8 -1,5 1,11 -5,25 -1,3 -2,5 -3,7 1,1 1,1 1,2 -1,0 -4,1 -6,2 1,-3 6,-14 6,-18 -9,1 -26,-1 -33,-4 0,-3 0,-6 1,-8 0,-8 0,-16 0,-24 -1,-5 -2,-10 -2,-15 -2,-8 -2,-7 -2,-15 -2,0 -13,2 -16,3 -3,0 -7,1 -10,3 -1,0 -2,1 -3,1 -8,4 -15,11 -19,18 -5,7 -7,17 -10,26 -3,7 -7,16 -9,24l0 1c0,1 0,2 0,2z"/>
   <path class="fil2" d="M161 54c0,1 1,4 2,5 1,2 2,2 3,3 0,2 -2,8 -3,9 -2,0 -2,-3 -5,-3l-1 2c-5,-3 -4,-2 -11,-2 -1,-4 -2,-7 0,-12 1,-4 3,-7 5,-9 6,-4 16,2 16,-13 0,1 1,2 1,3 2,2 5,3 8,4 10,4 -2,20 -4,19 -1,-1 -5,-5 -11,-6zm-39 -31c-2,1 -3,4 -3,6 -1,3 0,6 1,8 0,1 -1,2 -2,3 5,4 6,5 14,4 0,2 1,4 3,4 -1,-4 -1,-8 1,-11 2,-7 10,-5 9,1 0,2 -1,3 -2,5 -1,2 1,1 -2,4 -4,5 -7,6 -10,9 -5,7 -4,14 -1,21 1,1 2,3 3,4l2 4c-1,-1 -1,-1 -2,-2 -1,0 -2,-1 -3,-2 0,1 0,0 0,1 -1,0 -1,1 -1,1 -1,1 -1,1 -2,2 -3,4 -5,10 -6,11 -1,-1 -1,-5 -2,-7 -1,-3 -2,-5 -3,-7l-4 0c1,0 3,-1 5,-1 3,-1 3,1 4,1 0,-4 -9,-20 -11,-34 0,-3 -1,-8 3,-8 2,1 1,1 3,0 -1,-1 -2,-2 -3,-2 -2,-1 -3,-1 -4,0 -2,1 -2,2 -3,2l-3 3c-3,2 0,16 1,20 2,14 3,26 2,41 5,1 9,2 13,2 4,1 12,2 15,1l0 -1c1,-5 2,-16 2,-20 2,1 7,6 12,1 2,-2 1,-3 2,-6 0,-1 3,-3 4,-4 1,1 1,1 1,1l1 2c0,0 0,0 0,0 2,-1 3,-3 3,-6 4,1 5,5 8,-1 5,-11 4,-9 8,-9 2,-1 2,-2 4,-4 0,0 0,-1 1,-1l4 -6c2,2 2,4 6,4 3,1 7,0 7,-2 -1,-1 -4,-1 -4,-4 6,-1 10,-4 9,-11 -1,1 -2,2 -4,0 -1,0 -2,-1 -2,-3 3,-1 4,-3 4,-7 -2,0 -3,1 -7,-2 -3,-2 -2,-6 -4,-12 -2,-3 -5,-6 -9,-8 -1,0 -2,0 -3,-1 -3,-1 -5,-6 -15,-7 -5,0 -10,1 -12,4 -3,3 -2,1 -7,2 -13,2 -14,16 -16,18 0,1 -1,2 -3,1 -1,0 -1,-1 -2,-2z"/>
   <path class="fil2" d="M157 178c-1,4 2,5 -6,6 -1,0 -3,0 -5,0 -2,0 -2,-1 -4,-1 0,5 -3,9 5,8 2,0 4,0 6,-1 3,0 3,-1 4,-3 1,-2 4,-2 6,-2 3,0 3,0 5,2 2,1 3,2 6,1 2,0 5,0 7,-1 0,0 1,-5 2,-6 -3,0 -5,0 -8,0 -3,1 -3,-1 -5,-2 -2,-2 -2,-2 -6,-1 -2,0 -5,0 -7,0z"/>
   <path class="fil2" d="M194 168c5,0 10,-1 13,2 5,4 -5,4 -8,4 -1,-1 -5,-5 -5,-6zm8 -3c-2,1 -6,1 -9,1 -1,0 -4,-5 -4,-5 2,0 6,-1 8,0 2,0 5,2 5,4zm-4 -5c4,0 9,4 7,5 -1,1 -3,-1 -3,-2 -2,-2 -2,-2 -4,-3zm-2 16l-1 0c0,0 -1,0 -1,1 -1,-2 -2,-3 -3,-5l-10 -12 4 0c1,1 -1,-1 2,4l6 8c1,1 2,3 3,4zm-16 -17c0,1 12,16 13,19 5,-1 16,-1 20,-3 5,-2 1,-6 -4,-8 -1,0 -3,0 -4,-1 1,0 2,-1 2,-2 0,-3 -6,-5 -9,-5 -2,-1 -16,-1 -18,0z"/>
   <path class="fil2" d="M238 160c-2,0 -4,-1 -6,-1 -1,0 -4,0 -4,-1 2,-1 4,0 5,0 1,0 2,0 3,1 2,1 1,1 1,1 1,0 1,0 1,0zm3 7c0,0 0,0 0,1 0,0 0,0 0,0 -2,3 -7,2 -10,1 -3,-1 -6,-3 -7,-5 -3,-4 2,-6 6,-5 7,1 3,3 10,2 -2,-4 -20,-7 -23,-1 -2,2 1,6 2,7 3,3 8,5 14,6 4,1 14,1 14,-5l-6 -1z"/>
   <path class="fil2" d="M199 173c3,0 6,0 8,-1 0,-4 -7,-3 -10,-3 0,1 2,3 2,4z"/>
   <path class="fil2" d="M156 170c0,1 0,1 0,1l7 0c-1,-1 0,-1 -1,-1l-7 -7 1 7z"/>
   <path class="fil2" d="M193 165c2,0 5,0 7,-1 0,-3 -6,-2 -9,-2 0,1 1,1 2,3z"/>
  </g>
  <path class="fil0" d="M156 123l6 -4 7 -3c1,0 1,0 1,0 -3,-1 -7,0 -9,1 -2,1 -4,4 -5,6z"/>
  <path class="fil0" d="M218 177c1,1 2,2 4,2 4,3 12,5 16,3 -5,-1 -7,0 -11,-2 -4,-1 -7,-2 -9,-3z"/>
  <path class="fil0" d="M50 161c4,4 9,0 12,-2 -2,0 -3,1 -5,2 -3,0 -4,1 -7,0z"/>
  <path class="fil0" d="M198 160c2,1 2,1 4,3 0,1 2,3 3,2 2,-1 -3,-5 -7,-5z"/>
  <path class="fil0" d="M238 160c0,0 0,0 -1,0 0,0 1,0 -1,-1 -1,-1 -2,-1 -3,-1 -1,0 -3,-1 -5,0 0,1 3,1 4,1 2,0 4,1 6,1z"/>
  <path class="fil3" d="M37 209l0 -19 8 -7 0 1 0 25 -8 0zm21 31l2 7 -10 6 -13 0 0 -27 -16 0 0 -6 24 0 0 26 13 0 0 -6zm-37 5l1 2 -9 6 -13 0 0 -63 7 -7 1 1 0 62 13 0 0 -1zm217 -3l0 0 0 4 -18 0c-4,0 -9,-1 -12,-2 -4,-2 -6,-5 -8,-7 -1,-3 -2,-6 -2,-9 0,-1 -1,-2 -1,-3 0,-1 0,-1 0,-2 0,-1 0,-1 0,-2 0,0 0,-1 1,-2 0,-4 1,-7 2,-9 1,-1 1,-1 1,-2 0,1 -1,1 -1,1 -4,2 -6,5 -8,7 -1,3 -2,6 -2,9 -1,1 -1,2 -1,2 0,1 0,2 0,3 0,0 0,1 0,2 0,0 0,1 1,2 0,3 1,6 2,9 2,3 4,5 8,7 3,2 7,3 12,3l16 0 3 0 10 0 6 0 8 -6 2 -4 -2 3 -16 0 22 -31 -19 -29 -4 -3 -6 8 21 30 -15 21zm-25 -8l17 0 9 -5 -2 -1 -26 0 0 1 0 2c0,1 1,2 2,3zm-2 -18l3 0 16 0 9 -5 -2 -1 -15 0 -4 0c-3,0 -5,1 -6,3 0,1 -1,2 -1,3 0,0 0,0 0,0zm52 18l11 19 15 0 9 -6 -1 -1 -15 0 -13 -22 -6 10zm18 -50l-2 0 -6 6 -7 10 2 4 13 -20zm-218 23l7 -8 3 1 -2 0 0 10 20 0c3,0 6,0 8,1 2,1 3,3 3,5l0 2 -10 0c0,0 -1,0 -1,-1 -3,0 -5,-1 -8,-1l-20 0 0 -9zm51 37l2 3 -10 6 -32 0c-1,0 -2,-1 -3,-1 -1,0 -2,0 -3,0 -3,-1 -5,-3 -6,-5 -2,-2 -2,-5 -2,-8 0,-2 0,-3 0,-5 1,-1 1,-2 2,-3 1,-2 9,-9 11,-10 -1,1 -2,2 -3,3 -1,1 -1,3 -2,4 0,1 0,3 0,5 0,3 1,5 2,8 2,2 4,3 6,4 1,1 2,1 3,1 1,0 2,0 3,0l32 0 0 -2zm-20 -7l0 -3 -13 0c0,-1 0,-1 0,-2 0,-1 0,-2 2,-4 1,0 3,0 5,0l14 0 0 9 -8 0zm23 -30l7 -8 2 1 -1 0 0 46 12 0 0 -3 1 4 -9 6 -12 0 0 -46zm41 13l0 0 -8 6 -11 0 0 -6c0,-2 -1,-3 -2,-4 0,0 0,0 0,0l0 -7 4 0 3 0c0,0 1,0 1,1 1,1 2,2 2,4l0 6 11 0zm4 -4l-4 0 0 -4c0,-2 0,-4 0,-6 -1,-1 -1,-2 -2,-2l5 -4 1 0 8 0 0 -4c0,-2 0,-4 1,-5 0,-3 1,-5 3,-6 1,0 3,-1 4,-1 -6,1 -14,5 -16,13 0,1 0,2 0,3l0 0 0 9 8 0 0 37 13 0 0 -3 1 4 -10 6 -12 0 0 -37zm30 -23l3 1 -9 5 -3 0 0 -2c0,-2 0,-3 1,-3 1,-1 3,-1 4,-1l4 0zm1 16l2 1 -9 6 -3 0 0 -7 10 0z"/>
  <path class="fil4" d="M239 244l21 -29 -22 -32 18 0 12 18 12 -18 18 0 -21 31 23 33 -19 0 -12 -20 -14 20 -35 0c-4,0 -9,0 -13,-2l0 0 0 0c-3,-2 -6,-5 -8,-8 -1,-3 -2,-6 -3,-9 0,-1 0,-2 0,-3 0,0 0,-1 0,-2 0,0 0,-1 0,-2 0,-1 0,-2 1,-3 0,-3 1,-6 2,-8 2,-4 5,-6 8,-8l0 0 1 0c4,-2 8,-3 12,-3l19 0 0 12 -21 0c-2,0 -4,1 -5,3 0,0 -1,1 -1,2 0,0 0,1 0,1l27 0 0 12 -27 0 0 1c1,2 2,4 3,5 2,0 5,0 7,0l17 0 0 9zm-217 -36l22 0 0 -25 16 0 0 64 -16 0 0 -26 -22 0 0 26 -15 0 0 -64 15 0 0 25zm79 9l0 -1c0,-2 -1,-3 -3,-4 -2,-1 -5,-1 -7,-1l-21 0 0 -12 26 0c1,0 3,0 4,0 4,1 8,2 11,5l0 0 0 0c3,4 5,8 5,13l0 30 -34 0c-1,0 -2,0 -3,0 -1,0 -2,0 -3,-1 -3,-1 -5,-2 -7,-5 -2,-2 -2,-5 -2,-8 0,-2 0,-4 0,-5 1,-2 1,-3 2,-4 1,-3 4,-4 6,-5 3,-2 8,-2 11,-2l15 0zm44 -6c-1,-1 -1,-1 -1,-1l-6 0 0 37 -14 0 0 -48 21 0c3,0 6,1 9,1l0 0 0 0c2,2 4,3 5,6l0 0 0 0c0,2 1,4 1,6l0 9 -14 0 0 -7c0,-2 -1,-3 -1,-3zm40 -17c-1,1 -1,2 -1,3l0 2 11 0 0 12 -11 0 0 36 -15 0 0 -36 -9 0 0 -12 9 0 0 -3c0,-2 0,-4 0,-6l0 0 0 0c1,-2 3,-4 5,-6l0 0 0 0c3,-1 6,-1 9,-1l12 0 0 11 -7 0c-1,0 -2,0 -3,0zm-84 42l0 -7 -13 0c-2,0 -3,0 -5,0 -1,1 -1,2 -1,3 0,1 0,2 0,3 2,0 3,1 5,1l14 0z"/>
  <path class="fil5" d="M21 184l0 25 24 0 0 -25 13 0 0 62 -13 0 0 -26 -24 0 0 26 -13 0 0 -62 13 0zm50 16l25 0c2,0 3,0 4,1 4,0 7,1 10,4 3,3 4,7 4,12l0 29 -32 0c-1,0 -2,0 -3,0 -1,0 -2,0 -3,-1 -2,-1 -4,-2 -6,-4 -1,-3 -2,-5 -2,-8 0,-2 0,-4 0,-5 1,-1 1,-3 2,-4 1,-2 3,-3 6,-4 2,-1 6,-2 10,-2l16 0 0 -2c0,-2 -1,-4 -3,-5 -2,-1 -5,-1 -8,-1l-20 0 0 -10zm16 37l15 0 0 -9 -14 0c-2,0 -4,0 -5,0 -2,2 -2,3 -2,4 0,2 0,3 0,3 2,1 4,2 6,2zm38 -37l20 0c3,0 6,1 8,2 2,0 4,2 5,4 0,2 0,4 0,6l0 8 -11 0 0 -6c0,-2 -1,-3 -2,-4 0,-1 -1,-1 -1,-1l-3 0 -4 0 0 37 -12 0 0 -46zm45 9l-8 0 0 -9 8 0 0 -4c0,-2 0,-4 1,-5 0,-3 1,-5 3,-6 2,-1 5,-1 9,-1l11 0 0 9 -6 0c-1,0 -3,0 -4,1 -1,0 -1,1 -1,3l0 3 11 0 0 9 -11 0 0 37 -13 0 0 -37zm50 37c-4,0 -9,-1 -12,-2 -4,-2 -6,-5 -8,-7 -1,-3 -2,-6 -2,-9 0,-1 -1,-2 -1,-3 0,-1 0,-1 0,-2 0,-1 0,-1 0,-2 0,0 0,-1 1,-2 0,-4 1,-7 2,-9 2,-3 4,-5 8,-7 3,-2 8,-3 12,-3l18 0 0 10 -16 0 -4 0c-3,0 -5,1 -6,3 0,1 -1,2 -1,3 0,1 0,2 0,3l27 0 0 9 -27 0 0 1 0 2c1,3 2,4 4,5 2,0 4,1 7,1l16 0 0 9 -18 0zm41 -31l-21 -31 15 0 13 20 13 -20 15 0 -20 30 21 32 -15 0 -13 -22 -14 22 -16 0 22 -31z"/>
  <path class="fil3" d="M285 185c1,0 2,0 3,1l0 0c0,1 1,1 1,2 0,1 -1,2 -1,3l0 0c-1,1 -2,1 -3,1 -1,0 -2,0 -2,-1l0 0c-1,-1 -1,-2 -1,-3 0,-1 0,-1 1,-2l0 0c0,-1 1,-1 2,-1zm2 1c0,0 -1,-1 -2,-1 0,0 -1,1 -2,1 0,1 -1,2 -1,2 0,1 1,2 1,3 1,0 2,0 2,0 1,0 2,0 2,0 1,-1 1,-2 1,-3 0,0 0,-1 -1,-2zm-3 4l0 -3 2 0c0,0 0,0 0,0 1,0 1,0 1,0 0,0 0,0 0,1 0,0 0,0 0,0 0,0 -1,1 -1,1 0,0 0,0 0,0 0,0 1,0 1,0l0 1 -1 0 0 -1c0,0 0,0 -1,0 0,0 0,0 0,0 0,0 0,0 0,0l0 0 0 1 -1 0zm1 -2l0 0c1,0 1,0 1,0 0,0 0,0 0,0 0,0 0,0 0,0 0,0 0,-1 0,-1 0,0 0,0 0,0 0,0 0,0 -1,0l0 0 0 1z"/>
 </g>
</svg>
